<svg width="7" height="12" viewBox="0 0 7 12" fill="none" xmlns="http://www.w3.org/2000/svg">
<path d="M0.750391 5.9999C0.75051 5.96719 0.757212 5.93484 0.770097 5.90478C0.782982 5.87471 0.801786 5.84755 0.82539 5.8249L5.82539 0.824903C5.87353 0.788795 5.93309 0.771266 5.99311 0.775532C6.05314 0.779798 6.10961 0.805573 6.15217 0.848126C6.19472 0.890679 6.2205 0.947153 6.22476 1.00718C6.22903 1.06721 6.2115 1.12676 6.17539 1.1749L1.35664 5.9999L6.17539 10.8249C6.20405 10.8464 6.22775 10.8738 6.24489 10.9052C6.26204 10.9367 6.27222 10.9715 6.27476 11.0072C6.2773 11.0429 6.27213 11.0788 6.25961 11.1123C6.24708 11.1459 6.22749 11.1764 6.20217 11.2017C6.17684 11.227 6.14637 11.2466 6.11281 11.2591C6.07925 11.2716 6.0434 11.2768 6.00767 11.2743C5.97194 11.2717 5.93718 11.2615 5.90573 11.2444C5.87428 11.2273 5.84688 11.2036 5.82539 11.1749L0.82539 6.1749C0.801786 6.15226 0.782982 6.12509 0.770097 6.09503C0.757212 6.06496 0.75051 6.03261 0.750391 5.9999Z" fill="#505050"/>
</svg>
