<svg width="18" height="20" viewBox="0 0 18 20" fill="none" xmlns="http://www.w3.org/2000/svg">
<path d="M12.4756 8.61538V4.46154C12.4756 3.54348 12.1269 2.66303 11.5061 2.01386C10.8853 1.3647 10.0433 1 9.16535 1C8.2874 1 7.44542 1.3647 6.82463 2.01386C6.20383 2.66303 5.85507 3.54348 5.85507 4.46154V8.61538M15.8795 6.77569L16.9944 17.8526C17.0562 18.4665 16.5971 19 16.0066 19H2.3241C2.18481 19.0002 2.04705 18.9697 1.91976 18.9105C1.79248 18.8514 1.67851 18.7649 1.58527 18.6567C1.49203 18.5485 1.4216 18.421 1.37856 18.2824C1.33552 18.1439 1.32082 17.9975 1.33543 17.8526L2.45122 6.77569C2.47696 6.52052 2.59213 6.28434 2.77452 6.1127C2.95692 5.94106 3.19363 5.84611 3.43901 5.84615H14.8917C15.4001 5.84615 15.8265 6.24769 15.8795 6.77569ZM6.18609 8.61538C6.18609 8.70719 6.15122 8.79524 6.08914 8.86015C6.02706 8.92507 5.94286 8.96154 5.85507 8.96154C5.76727 8.96154 5.68307 8.92507 5.621 8.86015C5.55892 8.79524 5.52404 8.70719 5.52404 8.61538C5.52404 8.52358 5.55892 8.43553 5.621 8.37062C5.68307 8.3057 5.76727 8.26923 5.85507 8.26923C5.94286 8.26923 6.02706 8.3057 6.08914 8.37062C6.15122 8.43553 6.18609 8.52358 6.18609 8.61538V8.61538ZM12.8067 8.61538C12.8067 8.70719 12.7718 8.79524 12.7097 8.86015C12.6476 8.92507 12.5634 8.96154 12.4756 8.96154C12.3878 8.96154 12.3036 8.92507 12.2416 8.86015C12.1795 8.79524 12.1446 8.70719 12.1446 8.61538C12.1446 8.52358 12.1795 8.43553 12.2416 8.37062C12.3036 8.3057 12.3878 8.26923 12.4756 8.26923C12.5634 8.26923 12.6476 8.3057 12.7097 8.37062C12.7718 8.43553 12.8067 8.52358 12.8067 8.61538V8.61538Z" stroke="white" stroke-linecap="round" stroke-linejoin="round"/>
</svg>
