<svg width="21" height="24" viewBox="0 0 21 24" fill="none" xmlns="http://www.w3.org/2000/svg">
<path d="M1.61538 2.03333C1.18696 2.03333 0.776078 2.19488 0.473135 2.48244C0.170192 2.76999 0 3.16 0 3.56667V5.1C0 5.50667 0.170192 5.89667 0.473135 6.18423C0.776078 6.47179 1.18696 6.63333 1.61538 6.63333H2.42308V20.4333C2.42308 21.2467 2.76346 22.0267 3.36935 22.6018C3.97523 23.1769 4.79699 23.5 5.65385 23.5H15.3462C16.203 23.5 17.0248 23.1769 17.6307 22.6018C18.2365 22.0267 18.5769 21.2467 18.5769 20.4333V6.63333H19.3846C19.813 6.63333 20.2239 6.47179 20.5269 6.18423C20.8298 5.89667 21 5.50667 21 5.1V3.56667C21 3.16 20.8298 2.76999 20.5269 2.48244C20.2239 2.19488 19.813 2.03333 19.3846 2.03333H13.7308C13.7308 1.62667 13.5606 1.23666 13.2576 0.949103C12.9547 0.661547 12.5438 0.5 12.1154 0.5H8.88461C8.45619 0.5 8.04531 0.661547 7.74237 0.949103C7.43942 1.23666 7.26923 1.62667 7.26923 2.03333H1.61538ZM6.46154 8.16667C6.67575 8.16667 6.88119 8.24744 7.03266 8.39122C7.18413 8.535 7.26923 8.73 7.26923 8.93333V19.6667C7.26923 19.87 7.18413 20.065 7.03266 20.2088C6.88119 20.3526 6.67575 20.4333 6.46154 20.4333C6.24732 20.4333 6.04189 20.3526 5.89041 20.2088C5.73894 20.065 5.65385 19.87 5.65385 19.6667V8.93333C5.65385 8.73 5.73894 8.535 5.89041 8.39122C6.04189 8.24744 6.24732 8.16667 6.46154 8.16667ZM10.5 8.16667C10.7142 8.16667 10.9197 8.24744 11.0711 8.39122C11.2226 8.535 11.3077 8.73 11.3077 8.93333V19.6667C11.3077 19.87 11.2226 20.065 11.0711 20.2088C10.9197 20.3526 10.7142 20.4333 10.5 20.4333C10.2858 20.4333 10.0803 20.3526 9.92887 20.2088C9.7774 20.065 9.69231 19.87 9.69231 19.6667V8.93333C9.69231 8.73 9.7774 8.535 9.92887 8.39122C10.0803 8.24744 10.2858 8.16667 10.5 8.16667ZM15.3462 8.93333V19.6667C15.3462 19.87 15.2611 20.065 15.1096 20.2088C14.9581 20.3526 14.7527 20.4333 14.5385 20.4333C14.3242 20.4333 14.1188 20.3526 13.9673 20.2088C13.8159 20.065 13.7308 19.87 13.7308 19.6667V8.93333C13.7308 8.73 13.8159 8.535 13.9673 8.39122C14.1188 8.24744 14.3242 8.16667 14.5385 8.16667C14.7527 8.16667 14.9581 8.24744 15.1096 8.39122C15.2611 8.535 15.3462 8.73 15.3462 8.93333Z" fill="#505050"/>
</svg>
