<svg width="15" height="10" viewBox="0 0 15 10" fill="none" xmlns="http://www.w3.org/2000/svg">
<path d="M14.2 8.60001V1.40001C14.2 0.736012 13.664 0.200012 13 0.200012H1.79198C1.12798 0.200012 0.59198 0.736012 0.59198 1.40001V8.60001C0.59198 9.26401 1.12798 9.80001 1.79198 9.80001H13C13.664 9.80001 14.2 9.26401 14.2 8.60001ZM13.152 1.31201C13.416 1.57601 13.272 1.84801 13.128 1.98401L9.87998 4.96001L13 8.20801C13.096 8.32001 13.16 8.49601 13.048 8.61601C12.944 8.74401 12.704 8.73601 12.6 8.65601L9.10398 5.67201L7.39198 7.23201L5.68798 5.67201L2.19198 8.65601C2.08798 8.73601 1.84798 8.74401 1.74398 8.61601C1.63198 8.49601 1.69598 8.32001 1.79198 8.20801L4.91198 4.96001L1.66398 1.98401C1.51998 1.84801 1.37598 1.57601 1.63998 1.31201C1.90398 1.04801 2.17598 1.17601 2.39998 1.36801L7.39198 5.40001L12.392 1.36801C12.616 1.17601 12.888 1.04801 13.152 1.31201Z" fill="#505050"/>
</svg>
